<svg width="251" height="33" viewBox="0 0 251 33" fill="none" xmlns="http://www.w3.org/2000/svg">
<path d="M0 30.66V2.69999H4.72V26.18H17.48V30.66H0Z" fill="#121926"/>
<path d="M42.5763 9.29999C40.6829 7.32665 38.3496 6.33999 35.5763 6.33999C32.8029 6.33999 30.4563 7.32665 28.5363 9.29999C26.6429 11.2733 25.6963 13.6733 25.6963 16.5C25.6963 19.3 26.6429 21.6867 28.5363 23.66C30.4563 25.6333 32.8029 26.62 35.5763 26.62C38.3496 26.62 40.6829 25.6333 42.5763 23.66C44.4963 21.6867 45.4563 19.3 45.4563 16.5C45.4563 13.6733 44.4963 11.2733 42.5763 9.29999ZM46.0563 26.82C43.2296 29.5667 39.7363 30.94 35.5763 30.94C31.4163 30.94 27.9229 29.5667 25.0963 26.82C22.2696 24.0467 20.8563 20.6067 20.8563 16.5C20.8563 12.3667 22.2696 8.92666 25.0963 6.17999C27.9229 3.40666 31.4163 2.01999 35.5763 2.01999C39.7363 2.01999 43.2296 3.40666 46.0563 6.17999C48.8829 8.92666 50.2963 12.3667 50.2963 16.5C50.2963 20.6067 48.8829 24.0467 46.0563 26.82Z" fill="#121926"/>
<path d="M75.61 17.06H80.33V26.62C77.69 29.5267 73.9167 30.98 69.01 30.98C64.8767 30.98 61.41 29.62 58.61 26.9C55.8367 24.18 54.45 20.74 54.45 16.58C54.45 12.42 55.8633 8.95332 58.69 6.17999C61.5433 3.40666 64.9833 2.01999 69.01 2.01999C73.0367 2.01999 76.3833 3.19332 79.05 5.53999L76.53 9.13999C75.4367 8.20666 74.33 7.56666 73.21 7.21999C72.1167 6.84666 70.8367 6.65999 69.37 6.65999C66.5433 6.65999 64.17 7.57999 62.25 9.41999C60.33 11.2333 59.37 13.6333 59.37 16.62C59.37 19.58 60.3033 21.9667 62.17 23.78C64.0367 25.5667 66.29 26.46 68.93 26.46C71.5967 26.46 73.8233 25.8867 75.61 24.74V17.06Z" fill="#121926"/>
<path d="M106.443 9.29999C104.55 7.32665 102.217 6.33999 99.4434 6.33999C96.6701 6.33999 94.3234 7.32665 92.4034 9.29999C90.5101 11.2733 89.5634 13.6733 89.5634 16.5C89.5634 19.3 90.5101 21.6867 92.4034 23.66C94.3234 25.6333 96.6701 26.62 99.4434 26.62C102.217 26.62 104.55 25.6333 106.443 23.66C108.363 21.6867 109.323 19.3 109.323 16.5C109.323 13.6733 108.363 11.2733 106.443 9.29999ZM109.923 26.82C107.097 29.5667 103.603 30.94 99.4434 30.94C95.2834 30.94 91.7901 29.5667 88.9634 26.82C86.1368 24.0467 84.7234 20.6067 84.7234 16.5C84.7234 12.3667 86.1368 8.92666 88.9634 6.17999C91.7901 3.40666 95.2834 2.01999 99.4434 2.01999C103.603 2.01999 107.097 3.40666 109.923 6.17999C112.75 8.92666 114.163 12.3667 114.163 16.5C114.163 20.6067 112.75 24.0467 109.923 26.82Z" fill="#121926"/>
<rect x="218.468" y="0.5" width="32" height="32" rx="8" fill="#DAE7F9"/>
<g clip-path="url(#clip0_1_10356)">
<path d="M229.562 11.5H240.228" stroke="#6290CB" stroke-width="1.5" stroke-linecap="round" stroke-linejoin="round"/>
<path d="M229.562 16.5H240.228" stroke="#6290CB" stroke-width="1.5" stroke-linecap="round" stroke-linejoin="round"/>
<path d="M229.562 21.5H240.228" stroke="#6290CB" stroke-width="1.5" stroke-linecap="round" stroke-linejoin="round"/>
</g>
<defs>
<clipPath id="clip0_1_10356">
<rect width="16" height="16" fill="white" transform="translate(226.468 8.5)"/>
</clipPath>
</defs>
</svg>
